<?xml version="1.0" encoding="utf-8"?>
<!-- Generator: Adobe Illustrator 24.2.3, SVG Export Plug-In . SVG Version: 6.00 Build 0)  -->
<svg version="1.1" id="Layer_1" xmlns="http://www.w3.org/2000/svg" xmlns:xlink="http://www.w3.org/1999/xlink" x="0px" y="0px"
	 viewBox="0 0 840 859" style="enable-background:new 0 0 840 859;" xml:space="preserve">
<style type="text/css">
	.st0{fill:#FBFBFB;}
	.st1{fill:#1E2139;}
</style>
<g id="_x23_fbfbfbff">
	<path class="st0" d="M406.5,176.7c28.9-2.8,58.5,3.1,84.1,16.8c30.4,16.1,54.9,43.2,67.9,75.1c14.8,35.7,14.8,77.3,0.1,113
		c-13.4,32.8-38.9,60.5-70.5,76.5c-37.8,19.5-84.1,21.5-123.5,5.3c-35-14-64.1-42-79.7-76.3c-12.6-27.3-16.5-58.6-11.1-88.2
		c6.1-35.1,25.5-67.6,53.3-89.9C349.6,190.7,377.6,179.3,406.5,176.7z"/>
	<path class="st0" d="M398.5,519.8c42.2-3.2,85.1,2.9,124.5,18.3c37.1,14.4,71,36.7,98.9,65c25.2,25.4,45.4,55.7,59.5,88.6
		c0.4,1.2,1.7,2.8,0.2,3.8c-49.8,49.1-113.6,83.7-182,98.4c-50.6,11-103.5,11.2-154.2,0.8c-69.6-14.1-134.8-48.9-185.5-98.6
		c-0.3-0.5-0.9-1.5-1.3-2c26.5-64.7,78-118.6,141.3-148.2C330.8,531.2,364.4,522.4,398.5,519.8z"/>
</g>
<g id="_x23_000000ff">
	<path class="st1" d="M393.5,12.8c61-3.8,122.8,5.5,179.7,28C642.5,68,704.2,114.2,750,173c26.9,34.6,48.5,73.4,63.3,114.7
		c30.4,83.8,32.8,177.3,7,262.6c-17.2,57.2-47.1,110.5-86.6,155.4c-42.8,48.5-96.9,87-156.9,111.1C505.1,845.8,425.4,854,349.2,841
		c-81.5-13.9-158.4-52.9-217.9-110.3c-57-54.5-98.1-125.5-116.5-202.2c-16.8-68.6-15.7-141.5,3-209.7c12.1-44,31.5-86,57.2-123.7
		c47.8-70.4,117.5-125.8,197.1-155.9C311,24.3,352,15.6,393.5,12.8 M406.5,176.7c-28.9,2.6-56.9,14.1-79.5,32.3
		c-27.8,22.3-47.2,54.8-53.3,89.9c-5.3,29.6-1.4,60.8,11.1,88.2c15.6,34.3,44.7,62.3,79.7,76.3c39.3,16.1,85.6,14.2,123.5-5.3
		c31.6-16,57.1-43.7,70.5-76.5c14.8-35.7,14.8-77.3-0.1-113c-13-31.9-37.5-58.9-67.9-75.1C465,179.8,435.3,173.9,406.5,176.7
		 M398.5,519.8c-34.1,2.6-67.7,11.5-98.6,26.1c-63.3,29.6-114.8,83.5-141.3,148.2c0.3,0.5,0.9,1.5,1.3,2
		c50.7,49.7,115.9,84.5,185.5,98.6c50.7,10.4,103.6,10.1,154.2-0.8c68.4-14.6,132.3-49.3,182-98.4c1.5-1,0.2-2.6-0.2-3.8
		c-14-32.9-34.3-63.2-59.5-88.6c-27.9-28.3-61.9-50.6-98.9-65C483.6,522.7,440.7,516.6,398.5,519.8z"/>
</g>
</svg>
